<svg width="19" height="19" viewBox="0 0 19 19" fill="none" xmlns="http://www.w3.org/2000/svg">
<path fill-rule="evenodd" clip-rule="evenodd" d="M15.991 3.0096L3.39901 7.5626L7.59401 9.9906L11.293 6.2906C11.4806 6.10309 11.7351 5.99781 12.0004 5.9979C12.2656 5.99799 12.52 6.10346 12.7075 6.2911C12.895 6.47874 13.0003 6.73319 13.0002 6.99846C13.0001 7.26373 12.8946 7.51809 12.707 7.7056L9.00701 11.4056L11.437 15.5996L15.991 3.0096ZM16.314 0.765602C17.509 0.332602 18.667 1.4906 18.234 2.6856L12.952 17.2906C12.518 18.4886 10.882 18.6346 10.243 17.5316L7.02601 11.9736L1.46801 8.7566C0.365006 8.1176 0.511006 6.4816 1.70901 6.0476L16.314 0.765602Z" fill="white"/>
</svg>
